<svg width="1264" height="2000" viewBox="0 0 1264 2000" fill="none" xmlns="http://www.w3.org/2000/svg">
<g clip-path="url(#clip0_510_618)">
<path d="M531.453 53.3312C531.453 23.8771 555.36 0 584.85 0H589.883C619.372 0 643.279 23.8771 643.279 53.3312V287.807L725.972 200.932C736.125 190.264 750.235 184.346 764.753 184.346C810.652 184.346 837.125 239.911 803.696 274.638L712.138 369.756L824.47 500.68C854.15 535.279 829.538 588.717 783.923 588.717H773.162C756.996 588.717 741.704 581.401 731.567 568.826L643.279 459.3V535.385C643.279 564.838 619.372 588.717 589.883 588.717H584.85C555.36 588.717 531.453 564.838 531.453 535.385V53.3312Z" fill="white"/>
<path d="M357.771 273.098C321.23 273.098 286.472 283.373 260.213 304.572C233.359 326.252 217.134 358.092 217.134 396.305C217.134 434.157 231.716 462.084 253.684 482.509C274.261 501.647 300.486 513.356 322.264 522.275C327.173 524.283 331.815 526.145 336.207 527.902L336.235 527.914C353.262 534.732 366.534 540.048 377.057 546.825C388.483 554.185 390.569 559.368 390.569 565.542C390.569 574.068 387.4 579.404 382.664 583.218C377.29 587.554 368.313 590.999 356.442 590.999C330.987 590.999 316.526 581.258 306.356 568.922C290.936 550.226 260.113 538.623 233.459 556.048C212.791 569.558 201.722 599.141 217.808 624.299C240.473 659.756 281.916 694.724 353.784 694.724C432.709 694.724 501.069 644.53 501.069 562.886C501.069 524.457 486.64 496.032 464.547 475.23C443.814 455.708 417.397 443.979 395.387 435.169C389.637 432.87 384.262 430.785 379.227 428.829L379.214 428.825L379.19 428.817L379.17 428.809C362.986 422.53 350.327 417.619 340.083 411.303C328.477 404.152 326.967 399.465 326.967 394.313C326.967 388.588 329.019 385.09 332.423 382.376C336.438 379.174 343.781 376.157 354.449 376.157C374.686 376.157 384.472 383.298 390.498 390.095C405.142 406.611 434.373 420.449 462.336 404.558C483.036 392.794 498.713 362.761 480.619 335.342C460.356 304.639 420.085 273.098 357.771 273.098Z" fill="white"/>
<path d="M826.097 348.415C811.631 313.315 837.469 274.783 875.478 274.783H881.044C902.967 274.783 922.664 288.167 930.712 308.533L1006.41 500.056L1079.61 309.05C1087.52 288.412 1107.36 274.783 1129.48 274.783H1133.95C1171.71 274.783 1197.54 312.858 1183.54 347.884L1017.09 764.384C1008.99 784.652 989.344 797.947 967.494 797.947H966.38C928.453 797.947 902.619 759.563 916.935 724.486L948.858 646.259L826.097 348.415Z" fill="white"/>
<path d="M755.866 665.895C726.372 665.895 702.466 689.769 702.466 719.222V739.117C679.385 743.506 661.931 763.773 661.931 788.105V792.089C661.931 816.421 679.385 836.684 702.466 841.077V994.838C702.466 1036.64 710.372 1074.97 732.182 1103.38C755.13 1133.26 789.571 1147.24 831.146 1147.24C835.672 1147.24 839.951 1147.13 843.858 1146.96C873.028 1145.66 892.704 1121.15 892.704 1095.07V1083.79C892.704 1057.84 870.915 1040.2 848.421 1040.2C827.676 1040.2 823.381 1036.34 821.992 1034.74C819.291 1031.63 814.296 1021.55 814.296 990.19V841.959H838.121C866.798 841.959 890.049 818.741 890.049 790.097C890.049 761.453 866.798 738.235 838.121 738.235H814.296V719.222C814.296 689.769 790.389 665.895 760.895 665.895H755.866Z" fill="white"/>
<path d="M922.899 861.453C884.891 861.453 859.053 899.983 873.518 935.085L996.279 1232.92L964.352 1311.15C950.037 1346.23 975.875 1384.62 1013.8 1384.62H1014.92C1036.77 1384.62 1056.41 1371.32 1064.51 1351.06L1230.96 934.554C1244.96 899.526 1219.13 861.453 1181.37 861.453H1176.9C1154.78 861.453 1134.94 875.081 1127.03 895.72L1053.83 1086.72L978.134 895.202C970.081 874.838 950.389 861.453 928.466 861.453H922.899Z" fill="white"/>
<path d="M330.244 729.373C299.168 729.373 271.145 738.648 248.472 753.154C241.219 743.928 229.951 738.005 217.297 738.005H199.147C169.656 738.005 145.749 761.883 145.749 791.337V1089.04C145.749 1118.49 169.656 1142.37 199.147 1142.37H204.178C233.669 1142.37 257.576 1118.49 257.576 1089.04V903.021C257.576 880.822 264.606 864.345 274.538 853.697C284.313 843.211 298.675 836.418 317.619 836.418C334.036 836.418 346.408 842.045 354.738 850.746C363.122 859.499 369.687 873.782 369.687 895.057V1089.04C369.687 1118.49 393.594 1142.37 423.085 1142.37H428.117C457.607 1142.37 481.514 1118.49 481.514 1089.04V897.049C481.514 853.057 469.964 811.248 444.113 779.843C417.632 747.673 378.509 729.373 330.244 729.373Z" fill="white"/>
<path d="M585.053 630.332C548.733 630.332 519.502 659.526 519.502 695.802C519.502 732.381 548.38 761.927 585.053 761.927C622.036 761.927 651.267 732.737 651.267 695.802C651.267 659.174 621.68 630.332 585.053 630.332Z" fill="white"/>
<path d="M529.47 879.543C529.47 850.089 553.377 826.211 582.87 826.211H587.899C617.393 826.211 641.3 850.089 641.3 879.543V1177.24C641.3 1206.7 617.393 1230.58 587.899 1230.58H582.87C553.377 1230.58 529.47 1206.7 529.47 1177.24V879.543Z" fill="white"/>
<path d="M734.356 1302.04L916.607 1264.34L904.381 1294.29C872.628 1372.06 929.976 1456.95 1013.8 1456.95H1014.92C1063.22 1456.95 1106.71 1427.57 1124.66 1382.68L1195.21 1206.21C1240.48 1194.28 1263.13 1177.12 1263.16 1159.96V1368.68C1263.16 1407.8 1226.34 1446.37 1192.33 1457.72C1154.72 1470.27 1121.46 1503.35 1121.46 1542.46V1719.82C1121.46 1758.93 1089.55 1790.64 1050.43 1790.64C1011.31 1790.64 979.397 1758.93 979.397 1719.82V1709.68C979.397 1671 948.04 1639.64 909.356 1639.64C870.672 1639.64 839.316 1671 839.316 1709.68V1928.87C839.316 1967.99 807.401 1999.7 768.283 1999.7C729.17 1999.7 697.255 1967.99 697.255 1928.87V1869.36C697.255 1830.97 666.13 1799.85 627.737 1799.85H622.113C586.826 1799.85 558.219 1771.24 558.219 1735.96C558.219 1700.67 529.611 1672.06 494.324 1672.06H488.364C449.781 1672.06 418.51 1640.79 418.51 1602.21V1527.59C418.51 1489 387.226 1457.72 348.638 1457.72C310.049 1457.72 278.767 1489 278.767 1527.59V1585.93C278.767 1625.04 246.854 1656.75 207.737 1656.75C168.621 1656.75 136.707 1625.04 136.707 1585.93V1393.45C136.707 1355.7 118.854 1338.34 60.3089 1325.42C14.457 1315.3 0.00506567 1294.5 0.00506567 1256.75L0 1168.06C0.485688 1167.85 0.970878 1167.65 1.4557 1167.44C7.9483 1184.15 36.1602 1200.13 86.0915 1210.46L528.798 1302.04C591.32 1314.98 671.838 1314.98 734.356 1302.04Z" fill="white"/>
<path d="M1263.16 1157.9V1159.89C1263.16 1159.21 1263.12 1158.54 1263.05 1157.86L1263.16 1157.9Z" fill="white"/>
<path d="M416.158 1831.6C416.158 1870.71 384.243 1902.42 345.126 1902.42C306.01 1902.42 274.096 1870.71 274.096 1831.6V1777.83C274.096 1738.71 306.01 1707 345.126 1707C384.243 1707 416.158 1738.71 416.158 1777.83V1831.6Z" fill="white"/>
</g>
<defs>
<clipPath id="clip0_510_618">
<rect width="1263.16" height="2000" fill="white"/>
</clipPath>
</defs>
</svg>
